<?xml version="1.0" encoding="UTF-8" standalone="no"?>
<svg
   id="hg-readme-banner-v2"
   viewBox="0 0 800 200"
   width="800"
   height="200"
   version="1.1"
   sodipodi:docname="project.svg"
   xml:space="preserve"
   inkscape:version="1.4.1 (93de688d07, 2025-03-30)"
   xmlns:inkscape="http://www.inkscape.org/namespaces/inkscape"
   xmlns:sodipodi="http://sodipodi.sourceforge.net/DTD/sodipodi-0.dtd"
   xmlns:xlink="http://www.w3.org/1999/xlink"
   xmlns="http://www.w3.org/2000/svg"
   xmlns:svg="http://www.w3.org/2000/svg"><sodipodi:namedview
     id="namedview4"
     pagecolor="#ffffff"
     bordercolor="#999999"
     borderopacity="1"
     inkscape:showpageshadow="0"
     inkscape:pageopacity="0"
     inkscape:pagecheckerboard="0"
     inkscape:deskcolor="#d1d1d1"
     inkscape:zoom="1.09"
     inkscape:cx="271.55963"
     inkscape:cy="110.09174"
     inkscape:window-width="1916"
     inkscape:window-height="1031"
     inkscape:window-x="1920"
     inkscape:window-y="27"
     inkscape:window-maximized="1"
     inkscape:current-layer="hg-readme-banner-v2" /><defs
     id="defs2"><linearGradient
       id="a"
       x1="112.46"
       y1="309.13"
       x2="314.5"
       y2="309.13"
       gradientUnits="userSpaceOnUse"
       gradientTransform="translate(-33.985 -122.816)"><stop
         offset="0"
         stop-color="#1992f4"
         id="stop1" /><stop
         offset="1"
         stop-color="#2b8af6"
         id="stop2" /></linearGradient><linearGradient
       id="XMLID_17_-9"
       gradientUnits="userSpaceOnUse"
       x1="174.0737"
       y1="215.5488"
       x2="132.27631"
       y2="141.7533"><stop
         offset="0"
         style="stop-color:#FB7655"
         id="stop3272-4" /><stop
         offset="0"
         style="stop-color:#FB7655"
         id="stop3274-5" /><stop
         offset="0.41"
         style="stop-color:#E42B1E"
         id="stop3276-1" /><stop
         offset="0.99"
         style="stop-color:#990000"
         id="stop3278-0" /><stop
         offset="1"
         style="stop-color:#990000"
         id="stop3280-3" /></linearGradient><linearGradient
       id="XMLID_18_-7"
       gradientUnits="userSpaceOnUse"
       x1="194.895"
       y1="153.5576"
       x2="141.0276"
       y2="117.4093"><stop
         offset="0"
         style="stop-color:#871101"
         id="stop3285-8" /><stop
         offset="0"
         style="stop-color:#871101"
         id="stop3287-8" /><stop
         offset="0.99"
         style="stop-color:#911209"
         id="stop3289-6" /><stop
         offset="1"
         style="stop-color:#911209"
         id="stop3291-0" /></linearGradient><linearGradient
       id="XMLID_19_-4"
       gradientUnits="userSpaceOnUse"
       x1="151.79539"
       y1="217.7852"
       x2="97.929703"
       y2="181.638"><stop
         offset="0"
         style="stop-color:#871101"
         id="stop3296-6" /><stop
         offset="0"
         style="stop-color:#871101"
         id="stop3298-7" /><stop
         offset="0.99"
         style="stop-color:#911209"
         id="stop3300-6" /><stop
         offset="1"
         style="stop-color:#911209"
         id="stop3302-0" /></linearGradient><linearGradient
       id="XMLID_20_-9"
       gradientUnits="userSpaceOnUse"
       x1="38.696301"
       y1="127.3906"
       x2="47.046902"
       y2="181.66141"><stop
         offset="0"
         style="stop-color:#FFFFFF"
         id="stop3307-7" /><stop
         offset="0"
         style="stop-color:#FFFFFF"
         id="stop3309-5" /><stop
         offset="0.23"
         style="stop-color:#E57252"
         id="stop3311-9" /><stop
         offset="0.46"
         style="stop-color:#DE3B20"
         id="stop3313-7" /><stop
         offset="0.99"
         style="stop-color:#A60003"
         id="stop3315-8" /><stop
         offset="1"
         style="stop-color:#A60003"
         id="stop3317-5" /></linearGradient><linearGradient
       id="XMLID_21_-3"
       gradientUnits="userSpaceOnUse"
       x1="96.132797"
       y1="76.715302"
       x2="99.209602"
       y2="132.1021"><stop
         offset="0"
         style="stop-color:#FFFFFF"
         id="stop3322-3" /><stop
         offset="0"
         style="stop-color:#FFFFFF"
         id="stop3324-8" /><stop
         offset="0.23"
         style="stop-color:#E4714E"
         id="stop3326-3" /><stop
         offset="0.56"
         style="stop-color:#BE1A0D"
         id="stop3328-7" /><stop
         offset="0.99"
         style="stop-color:#A80D00"
         id="stop3330-9" /><stop
         offset="1"
         style="stop-color:#A80D00"
         id="stop3332-3" /></linearGradient><linearGradient
       id="XMLID_22_-7"
       gradientUnits="userSpaceOnUse"
       x1="147.103"
       y1="25.521"
       x2="156.3141"
       y2="65.216202"><stop
         offset="0"
         style="stop-color:#FFFFFF"
         id="stop3337-8" /><stop
         offset="0"
         style="stop-color:#FFFFFF"
         id="stop3339-7" /><stop
         offset="0.18"
         style="stop-color:#E46342"
         id="stop3341-4" /><stop
         offset="0.4"
         style="stop-color:#C82410"
         id="stop3343-1" /><stop
         offset="0.99"
         style="stop-color:#A80D00"
         id="stop3345-9" /><stop
         offset="1"
         style="stop-color:#A80D00"
         id="stop3347-0" /></linearGradient><linearGradient
       id="XMLID_23_-9"
       gradientUnits="userSpaceOnUse"
       x1="118.9761"
       y1="11.5415"
       x2="158.66859"
       y2="-8.3048"><stop
         offset="0"
         style="stop-color:#FFFFFF"
         id="stop3352-8" /><stop
         offset="0"
         style="stop-color:#FFFFFF"
         id="stop3354-8" /><stop
         offset="0.54"
         style="stop-color:#C81F11"
         id="stop3356-5" /><stop
         offset="0.99"
         style="stop-color:#BF0905"
         id="stop3358-8" /><stop
         offset="1"
         style="stop-color:#BF0905"
         id="stop3360-4" /></linearGradient><linearGradient
       id="XMLID_24_-3"
       gradientUnits="userSpaceOnUse"
       x1="3.9033"
       y1="113.5547"
       x2="7.1701999"
       y2="146.2628"><stop
         offset="0"
         style="stop-color:#FFFFFF"
         id="stop3365-7" /><stop
         offset="0"
         style="stop-color:#FFFFFF"
         id="stop3367-1" /><stop
         offset="0.31"
         style="stop-color:#DE4024"
         id="stop3369-3" /><stop
         offset="0.99"
         style="stop-color:#BF190B"
         id="stop3371-8" /><stop
         offset="1"
         style="stop-color:#BF190B"
         id="stop3373-0" /></linearGradient><linearGradient
       id="XMLID_25_-9"
       gradientUnits="userSpaceOnUse"
       x1="-18.5557"
       y1="155.10451"
       x2="135.0152"
       y2="-2.8092999"><stop
         offset="0"
         style="stop-color:#BD0012"
         id="stop3380-7" /><stop
         offset="0"
         style="stop-color:#BD0012"
         id="stop3382-9" /><stop
         offset="0.07"
         style="stop-color:#FFFFFF"
         id="stop3384-9" /><stop
         offset="0.17"
         style="stop-color:#FFFFFF"
         id="stop3386-3" /><stop
         offset="0.27"
         style="stop-color:#C82F1C"
         id="stop3388-2" /><stop
         offset="0.33"
         style="stop-color:#820C01"
         id="stop3390-4" /><stop
         offset="0.46"
         style="stop-color:#A31601"
         id="stop3392-3" /><stop
         offset="0.72"
         style="stop-color:#B31301"
         id="stop3394-7" /><stop
         offset="0.99"
         style="stop-color:#E82609"
         id="stop3396-1" /><stop
         offset="1"
         style="stop-color:#E82609"
         id="stop3398-2" /></linearGradient><linearGradient
       id="XMLID_26_-2"
       gradientUnits="userSpaceOnUse"
       x1="99.074699"
       y1="171.0332"
       x2="52.817699"
       y2="159.61659"><stop
         offset="0"
         style="stop-color:#8C0C01"
         id="stop3403-0" /><stop
         offset="0"
         style="stop-color:#8C0C01"
         id="stop3405-2" /><stop
         offset="0.54"
         style="stop-color:#990C00"
         id="stop3407-1" /><stop
         offset="0.99"
         style="stop-color:#A80D0E"
         id="stop3409-7" /><stop
         offset="1"
         style="stop-color:#A80D0E"
         id="stop3411-5" /></linearGradient><linearGradient
       id="XMLID_27_-1"
       gradientUnits="userSpaceOnUse"
       x1="178.52589"
       y1="115.5146"
       x2="137.43269"
       y2="78.683998"><stop
         offset="0"
         style="stop-color:#7E110B"
         id="stop3416-7" /><stop
         offset="0"
         style="stop-color:#7E110B"
         id="stop3418-4" /><stop
         offset="0.99"
         style="stop-color:#9E0C00"
         id="stop3420-1" /><stop
         offset="1"
         style="stop-color:#9E0C00"
         id="stop3422-7" /></linearGradient><linearGradient
       id="XMLID_28_-1"
       gradientUnits="userSpaceOnUse"
       x1="193.6235"
       y1="47.937"
       x2="173.15421"
       y2="26.053801"><stop
         offset="0"
         style="stop-color:#79130D"
         id="stop3427-1" /><stop
         offset="0"
         style="stop-color:#79130D"
         id="stop3429-1" /><stop
         offset="0.99"
         style="stop-color:#9E120B"
         id="stop3431-7" /><stop
         offset="1"
         style="stop-color:#9E120B"
         id="stop3433-0" /></linearGradient><radialGradient
       id="XMLID_29_-4"
       cx="143.8315"
       cy="79.388199"
       r="50.357601"
       gradientUnits="userSpaceOnUse"><stop
         offset="0"
         style="stop-color:#A80D00"
         id="stop3440-0" /><stop
         offset="0"
         style="stop-color:#A80D00"
         id="stop3442-8" /><stop
         offset="0.99"
         style="stop-color:#7E0E08"
         id="stop3444-5" /><stop
         offset="1"
         style="stop-color:#7E0E08"
         id="stop3446-1" /></radialGradient><radialGradient
       id="XMLID_30_-6"
       cx="74.0923"
       cy="145.75101"
       r="66.943703"
       gradientUnits="userSpaceOnUse"><stop
         offset="0"
         style="stop-color:#A30C00"
         id="stop3451-6" /><stop
         offset="0"
         style="stop-color:#A30C00"
         id="stop3453-2" /><stop
         offset="0.99"
         style="stop-color:#800E08"
         id="stop3455-1" /><stop
         offset="1"
         style="stop-color:#800E08"
         id="stop3457-9" /></radialGradient><linearGradient
       id="XMLID_31_-6"
       gradientUnits="userSpaceOnUse"
       x1="26.669901"
       y1="197.33591"
       x2="9.9886999"
       y2="140.742"><stop
         offset="0"
         style="stop-color:#8B2114"
         id="stop3462-4" /><stop
         offset="0"
         style="stop-color:#8B2114"
         id="stop3464-8" /><stop
         offset="0.43"
         style="stop-color:#9E100A"
         id="stop3466-0" /><stop
         offset="0.99"
         style="stop-color:#B3100C"
         id="stop3468-8" /><stop
         offset="1"
         style="stop-color:#B3100C"
         id="stop3470-1" /></linearGradient><linearGradient
       id="XMLID_32_-0"
       gradientUnits="userSpaceOnUse"
       x1="154.6411"
       y1="9.7979002"
       x2="192.039"
       y2="26.305901"><stop
         offset="0"
         style="stop-color:#B31000"
         id="stop3475-2" /><stop
         offset="0"
         style="stop-color:#B31000"
         id="stop3477-2" /><stop
         offset="0.44"
         style="stop-color:#910F08"
         id="stop3479-9" /><stop
         offset="0.99"
         style="stop-color:#791C12"
         id="stop3481-7" /><stop
         offset="1"
         style="stop-color:#791C12"
         id="stop3483-5" /></linearGradient><radialGradient
       gradientUnits="userSpaceOnUse"
       r="50.357601"
       cy="79.388199"
       cx="143.8315"
       id="XMLID_29_-4-5"><stop
         id="stop3440-0-3"
         style="stop-color:#A80D00"
         offset="0" /><stop
         id="stop3442-8-3"
         style="stop-color:#A80D00"
         offset="0" /><stop
         id="stop3444-5-8"
         style="stop-color:#7E0E08"
         offset="0.99" /><stop
         id="stop3446-1-3"
         style="stop-color:#7E0E08"
         offset="1" /></radialGradient><radialGradient
       gradientUnits="userSpaceOnUse"
       r="66.943703"
       cy="145.75101"
       cx="74.0923"
       id="XMLID_30_-6-7"><stop
         id="stop3451-6-9"
         style="stop-color:#A30C00"
         offset="0" /><stop
         id="stop3453-2-3"
         style="stop-color:#A30C00"
         offset="0" /><stop
         id="stop3455-1-7"
         style="stop-color:#800E08"
         offset="0.99" /><stop
         id="stop3457-9-8"
         style="stop-color:#800E08"
         offset="1" /></radialGradient><linearGradient
       id="linearGradient1548"
       gradientUnits="userSpaceOnUse"
       x1="154.6411"
       y1="9.7979002"
       x2="192.039"
       y2="26.305901"><stop
         offset="0"
         style="stop-color:#ef605e;stop-opacity:1"
         id="stop3477-28" /><stop
         offset="1"
         style="stop-color:#ef605e;stop-opacity:1"
         id="stop3483-3" /></linearGradient><linearGradient
       inkscape:collect="always"
       xlink:href="#linearGradient1548"
       id="linearGradient1510"
       x1="394.94897"
       y1="-436.32367"
       x2="700.41876"
       y2="-137.77484"
       gradientUnits="userSpaceOnUse"
       gradientTransform="matrix(3.7786837,0,0,3.7786837,156.35086,-655.07013)" /></defs><style
     id="style2">.st3{font-family:'OpenSans-Bold'}.st4{font-size:29.5168px}.st5{fill-rule:evenodd;clip-rule:evenodd;fill:none}.st7{font-family:'OpenSans'}.st8{font-size:12px}@media (prefers-color-scheme:dark){text{fill:#f0f6fc!important}}</style><text
     y="107.939"
     x="192.432"
     style="font-family:'Open Sans', sans-serif;-inkscape-font-specification:'OpenSans-Bold, Bold';font-variant-ligatures:normal;font-variant-caps:normal;font-variant-numeric:normal;font-feature-settings:normal;text-align:start"
     class="st3 st4"
     font-weight="700"
     font-size="29.517"
     font-family="'Open Sans',sans-serif"
     fill="#3f3e4b"
     id="text2">hausgold/schema-registry-ui</text><path
     class="st5"
     clip-rule="evenodd"
     fill="none"
     fill-rule="evenodd"
     d="M194.24 119.6h314.5v24h-314.5z"
     id="path2" /><text
     y="128.757"
     x="194.217"
     style="font-family:'Open Sans', sans-serif;-inkscape-font-specification:'Open Sans, sans-serif, Normal';font-variant-ligatures:normal;font-variant-caps:normal;font-variant-numeric:normal;font-feature-settings:normal;text-align:start"
     class="st7 st8"
     font-weight="400"
     font-size="12"
     font-family="'Open Sans',sans-serif"
     opacity=".75"
     fill="#3f3e4b"
     id="text3">mDNS enabled landoop/schema-registry-ui</text><g
     id="g5"
     transform="matrix(0.26464242,0,0,0.26464242,67.354265,18.673266)"><path
       inkscape:connector-curvature="0"
       id="path1482"
       d="M 541.17188,-483.41797 A 206.21819,206.21819 0 0 0 334.95312,-277.19922 206.21819,206.21819 0 0 0 541.17188,-70.980469 206.21819,206.21819 0 0 0 747.39062,-277.19922 206.21819,206.21819 0 0 0 541.17188,-483.41797 Z m -0.37305,89.84375 a 102.58189,102.58189 0 0 1 102.58203,102.58203 102.58189,102.58189 0 0 1 -83.82227,100.78125 v 49.66016 l -37.01953,11.83594 v -61.37305 a 102.58189,102.58189 0 0 1 -84.32226,-100.9043 102.58189,102.58189 0 0 1 102.58203,-102.58203 z m 0,37.65234 a 64.92985,64.92985 0 0 0 -64.92969,64.92969 64.92985,64.92985 0 0 0 64.92969,64.92969 64.92985,64.92985 0 0 0 64.92969,-64.92969 64.92985,64.92985 0 0 0 -64.92969,-64.92969 z"
       style="overflow:visible;fill:url(#linearGradient1510);fill-opacity:1;fill-rule:nonzero;stroke:none;stroke-width:2.7;stroke-linecap:square;stroke-linejoin:round;stroke-miterlimit:4;stroke-dasharray:none;stroke-dashoffset:0;stroke-opacity:1;paint-order:stroke fill markers"
       transform="translate(-410.86133,584.50976)" /><path
       style="color:#000000;font-style:normal;font-variant:normal;font-weight:normal;font-stretch:normal;font-size:medium;line-height:normal;font-family:sans-serif;font-variant-ligatures:normal;font-variant-position:normal;font-variant-caps:normal;font-variant-numeric:normal;font-variant-alternates:normal;font-feature-settings:normal;text-indent:0;text-align:start;text-decoration:none;text-decoration-line:none;text-decoration-style:solid;text-decoration-color:#000000;letter-spacing:normal;word-spacing:normal;text-transform:none;writing-mode:lr-tb;direction:ltr;text-orientation:mixed;dominant-baseline:auto;baseline-shift:baseline;text-anchor:start;white-space:normal;shape-padding:0;clip-rule:nonzero;display:inline;overflow:visible;visibility:visible;isolation:auto;mix-blend-mode:normal;color-interpolation:sRGB;color-interpolation-filters:linearRGB;solid-color:#000000;solid-opacity:1;vector-effect:none;fill:#ee605e;fill-opacity:0.905882;fill-rule:nonzero;stroke:none;stroke-width:5.7;stroke-linecap:butt;stroke-linejoin:miter;stroke-miterlimit:0;stroke-dasharray:5.7, 5.7;stroke-dashoffset:2.85;stroke-opacity:1;paint-order:normal;color-rendering:auto;image-rendering:auto;shape-rendering:auto;text-rendering:auto;enable-background:accumulate"
       d="m 535.90234,-505.44336 0.0723,5.69922 5.16211,-0.0664 h 0.0371 0.0352 l 0.39258,0.006 0.0723,-5.69922 -0.46485,-0.006 h -0.0723 z m 11.32618,5.7168 5.40429,0.20508 0.0332,0.002 0.1875,0.0137 0.35937,-5.68945 -0.25781,-0.0156 -0.0723,-0.004 -5.4375,-0.20704 z m -17.76758,-5.48828 -0.0723,0.004 -5.01562,0.31836 0.35937,5.6875 4.94531,-0.31445 0.0254,-0.002 0.64844,-0.0234 -0.21679,-5.69531 z m 29.00781,6.06836 5.43164,0.48242 0.17383,0.0195 0.64844,-5.66406 -0.17578,-0.0195 -0.0703,-0.008 -5.5039,-0.48828 z m -40.60156,-5.18946 -0.0703,0.008 -4.91211,0.5625 0.64843,5.6621 4.91016,-0.56054 0.68359,-0.0605 -0.50586,-5.67773 z m 51.79883,6.33399 5.375,0.75195 0.19921,0.0312 0.93165,-5.62305 -0.19922,-0.0332 -0.0703,-0.01 -5.44531,-0.76171 z m -63.22461,-4.88282 -0.0703,0.01 -4.90234,0.8125 0.93164,5.62305 4.90234,-0.81055 0.6543,-0.0918 -0.79101,-5.64453 z m 74.34961,6.5918 5.21289,0.99805 0.008,0.002 0.30664,0.0664 1.21289,-5.57032 -0.31445,-0.0684 -0.0703,-0.0137 -5.2832,-1.01171 z m -85.59375,-4.58594 -0.0703,0.0137 -4.9707,1.08398 1.21094,5.56836 4.96484,-1.08008 0.008,-0.002 0.53125,-0.10156 -1.07226,-5.59766 z m 96.61914,6.85938 4.95703,1.20898 0.0351,0.01 0.0332,0.008 0.43945,0.11914 1.48828,-5.50195 -0.50781,-0.13672 -0.0684,-0.0176 -5.02539,-1.22851 z m -107.66602,-4.31055 -0.0684,0.0176 -5.10937,1.38086 1.48828,5.50391 5.04101,-1.36524 0.0391,-0.01 0.0293,-0.008 0.32617,-0.0801 -1.35156,-5.53711 z m 118.56055,7.14063 4.62695,1.37695 0.76367,0.24609 1.75977,-5.41992 -0.76367,-0.24805 -0.0684,-0.0215 -4.69336,-1.39648 z m -129.39649,-4.06641 -0.0684,0.0215 -5.26562,1.70899 -0.0664,0.0234 -0.0312,0.01 1.38477,3.9375 0.47265,1.45117 0.0352,-0.0117 5.23047,-1.69727 0.0586,-0.0176 -1.625,-5.46289 z m 140.13282,7.45117 4.29882,1.51367 1.00196,0.38086 2.02539,-5.32812 -1.06836,-0.4043 -0.0645,-0.0254 -4.29882,-1.51367 z m -155.95899,-1.88086 -0.0644,0.0254 -0.3711,0.15235 2.15625,5.27539 0.30469,-0.125 0.0312,-0.0117 0.0332,-0.0137 4.88868,-1.85742 -2.02539,-5.32813 z M 624,-483.87891 l 3.78906,1.54688 0.0332,0.0156 0.0312,0.0117 1.34375,0.58985 2.2832,-5.22266 -1.40625,-0.61523 -0.0644,-0.0274 -3.85547,-1.57617 z m -176.75586,-1.47656 -0.0645,0.0293 -0.74024,0.3457 2.41211,5.16406 0.67774,-0.3164 4.47265,-1.95703 -2.28515,-5.22266 z m 187.09375,5.93359 3.3125,1.54688 0.004,0.002 1.76562,0.87696 2.53516,-5.10547 -1.76758,-0.87891 -0.0625,-0.0293 -3.375,-1.57617 z m -197.07617,-1.125 -0.0606,0.0313 -1.1289,0.5957 2.6582,5.04101 1.06836,-0.56445 0.0234,-0.0117 0.0371,-0.0195 3.90039,-1.9375 -2.53711,-5.10351 z m 207.17578,6.10352 2.8125,1.48242 0.0391,0.0215 0.0215,0.0117 2.08007,1.16406 2.78126,-4.97656 -2.14063,-1.19532 -0.0606,-0.0332 -2.87304,-1.51563 z m -216.88086,-0.83398 -0.0606,0.0351 -1.52343,0.90039 2.90234,4.90625 1.46289,-0.86523 3.42969,-1.91797 -2.78125,-4.97656 z m 226.7168,6.3164 2.29883,1.35938 0.0156,0.01 0.043,0.0254 2.45312,1.53125 3.01758,-4.83398 -2.50976,-1.56836 -0.0586,-0.0352 -2.35937,-1.39453 z m -236.13282,-0.59765 -0.0566,0.0371 -1.91406,1.25976 3.13477,4.76172 1.85547,-1.22266 0.006,-0.004 2.88476,-1.80274 -3.01758,-4.83398 z m 245.67774,6.57031 1.78711,1.17578 2.87109,1.99023 3.24805,-4.68554 -2.87109,-1.99024 -0.0566,-0.0371 -1.84376,-1.21484 z m -254.78711,-0.41797 -0.0547,0.0391 -2.29101,1.66992 3.35937,4.60547 2.23438,-1.63086 0.0215,-0.0156 0.0332,-0.0234 2.30079,-1.5918 -3.24805,-4.68554 z m 264.02148,6.86523 1.33594,0.97461 3.15625,2.41993 3.46875,-4.52344 -3.21094,-2.46094 -0.0547,-0.041 -1.33594,-0.9746 z m -272.8125,-0.29296 -0.0527,0.041 -2.64453,2.13086 3.57617,4.43945 2.58984,-2.08789 0.0274,-0.0215 0.0273,-0.0215 1.77539,-1.35937 -3.46875,-4.52344 z m 281.71094,7.19531 0.79492,0.63867 0.0137,0.0117 0.0391,0.0312 3.46875,2.93555 3.68164,-4.35352 -3.52344,-2.97656 -0.0527,-0.0449 -0.84571,-0.68164 z m -290.16797,-0.21875 -0.0508,0.0449 -2.9668,2.63281 3.78321,4.26367 2.91601,-2.58789 0.004,-0.004 1.31836,-1.11524 -3.67969,-4.35351 z m 298.70899,7.56054 0.33203,0.29297 0.041,0.0391 0.01,0.008 3.74805,3.48828 3.88281,-4.17187 -3.79688,-3.53516 -0.0508,-0.0449 -0.38281,-0.33985 z m -306.81641,-0.19335 -0.0488,0.0469 -3.2539,3.17578 3.98242,4.07813 3.20312,-3.12891 0.0176,-0.0156 0.0312,-0.0312 0.79688,-0.73829 -3.88477,-4.17187 z m 314.92969,7.90625 3.68555,3.77148 0.0156,0.0156 0.0312,0.0332 0.19727,0.21484 4.17187,-3.88281 -0.24414,-0.26367 -0.0469,-0.0488 -3.73047,-3.82227 z m -322.67774,-0.16016 -0.0469,0.0488 -3.49219,3.75195 4.17188,3.88477 3.44531,-3.70508 0.0312,-0.0312 0.0156,-0.0176 0.35352,-0.36133 -4.07813,-3.98047 z m 330.4336,8.32812 3.1582,3.5586 0.002,0.002 0.5625,0.66602 4.35157,-3.68164 -0.60547,-0.7168 -0.0449,-0.0508 -3.16016,-3.56055 z m -341.3418,3.9629 -0.0449,0.0527 -0.18359,0.22656 4.43945,3.57617 0.14062,-0.17578 0.0117,-0.0137 0.0312,-0.0391 3.44922,-4.07617 -4.35351,-3.67969 z m 348.67774,4.58203 2.58593,3.20898 0.0215,0.0273 0.0215,0.0274 0.87695,1.14453 4.52344,-3.46875 -0.91992,-1.19922 -0.041,-0.0527 -2.6289,-3.26368 z m -355.45704,4.04101 -0.041,0.0547 -0.50586,0.69531 4.60547,3.35742 0.46484,-0.63867 0.0234,-0.0293 0.0176,-0.0254 2.90429,-3.7871 -4.52343,-3.46876 z m 362.35547,4.86133 2.09961,2.87695 0.0156,0.0234 0.0234,0.0312 1.14062,1.64649 4.68359,-3.2461 -1.17968,-1.70312 -0.0391,-0.0547 -2.13867,-2.93359 z m -368.72265,4.08789 -0.0371,0.0566 -0.77735,1.17969 4.76172,3.13476 0.73828,-1.12304 2.44141,-3.52344 -4.68359,-3.24805 z m 375.16406,5.15039 1.6582,2.51953 0.004,0.006 1.38086,2.21094 4.83594,-3.01758 -1.38477,-2.21875 -0.0371,-0.0566 -1.69531,-2.57812 z m -381.10352,4.11133 -0.0351,0.0606 -0.99024,1.67382 4.90625,2.90039 0.95508,-1.61523 0.01,-0.0156 0.0254,-0.043 1.95312,-3.12696 -4.83593,-3.01757 z m 387.07032,5.4375 1.30468,2.20898 1.4961,2.67578 4.97461,-2.78124 -1.5293,-2.73633 -0.0352,-0.0605 -1.30468,-2.20703 z m -392.56836,4.12305 -0.0332,0.0605 -1.14453,2.16993 5.04102,2.66015 1.11133,-2.10937 0.0234,-0.041 0.01,-0.0195 1.55078,-2.77344 -4.97461,-2.78125 z m 398.04492,5.71679 0.93555,1.76953 0.0117,0.0234 0.0195,0.0371 1.58398,3.18945 5.10352,-2.53711 -1.61524,-3.25 -0.0312,-0.0605 -0.9668,-1.83203 z m -403.08985,4.12696 -0.0293,0.0625 -1.24024,2.65625 5.16602,2.41211 1.20898,-2.59375 0.002,-0.006 1.23047,-2.47461 -5.10547,-2.53711 z m 408.0625,5.97461 0.65235,1.39843 1.63867,3.74414 5.22266,-2.2832 -1.63868,-3.74609 -0.0293,-0.0625 -0.68164,-1.46094 z m -412.63476,4.13867 -0.0273,0.0645 -1.2754,3.11914 5.27735,2.15625 1.24609,-3.05469 0.0156,-0.0351 0.0117,-0.0293 0.9082,-2.07031 -5.22266,-2.28516 z m 417.08594,6.20312 0.42578,1.04102 0.0117,0.0332 0.0137,0.0312 1.57617,4.14649 5.32813,-2.0254 -1.60157,-4.21093 -0.0254,-0.0645 -0.45117,-1.10742 z m -421.17578,4.16602 -0.0254,0.0644 -1.25,3.55078 5.37696,1.89258 1.25,-3.54883 0.66406,-1.74414 -5.32812,-2.02539 z m 425.0957,6.38867 0.25195,0.71289 v 0.002 l 1.50391,4.63282 5.42187,-1.75977 -1.5039,-4.63476 -0.0234,-0.0664 -0.27344,-0.78125 z m -428.6875,4.21875 -0.0215,0.0684 -1.16992,3.93164 5.46289,1.625 1.15039,-3.86523 0.49219,-1.51758 -5.42187,-1.76172 z m 432.06445,6.51953 0.14649,0.49609 1.33593,4.9336 5.50196,-1.48828 -1.35352,-5.00196 -0.0195,-0.0684 -0.14844,-0.49609 z m -435.14258,4.31641 -0.0176,0.0684 -1.03907,4.2539 5.53711,1.35157 1.02149,-4.18555 0.01,-0.0352 0.008,-0.0332 0.32618,-1.20703 -5.50196,-1.48828 z m 437.9668,6.58008 0.0488,0.19921 1.1543,5.29883 5.57031,-1.21094 -1.1543,-5.30078 -0.0156,-0.0703 -0.0664,-0.26758 z m -440.51953,4.46484 -0.0137,0.0703 -0.86328,4.50195 5.59961,1.07227 0.84765,-4.43164 0.002,-0.008 0.23438,-1.08203 -5.56836,-1.21289 z m 442.78516,6.56055 0.0215,0.11132 0.90039,5.44141 5.62305,-0.93164 -0.91211,-5.51367 -0.0137,-0.0703 -0.0195,-0.10938 z M 315.49609,-312 l -0.01,0.0703 -0.65235,4.66016 5.64454,0.78906 0.64257,-4.58789 0.16211,-0.98242 -5.62304,-0.93164 z m 447.86719,6.25195 -1.37305,0.15625 0.004,0.0352 v 0.002 l 0.63867,5.58985 5.66407,-0.64649 -0.64258,-5.62695 -0.01,-0.0723 -0.006,-0.0352 z m -449.32031,5.17383 -0.008,0.0703 -0.41797,4.71094 5.67773,0.50586 0.41211,-4.64062 0.10938,-0.96289 -5.66211,-0.64844 z m 449.32226,6.19336 -0.23437,0.0156 v 0.006 l 0.002,0.0137 0.35547,5.60351 5.6875,-0.36133 -0.35547,-5.62304 -0.006,-0.0723 -0.006,-0.0644 z m -450.20507,5.39844 -0.004,0.0723 -0.17578,4.64258 5.69531,0.2168 0.17383,-4.61719 0.002,-0.0254 0.0625,-0.98047 -5.6875,-0.35937 z m 450.54296,5.86328 0.006,0.13672 v 0.0312 l 0.0703,5.46094 5.69922,-0.0723 -0.0684,-5.49219 -0.002,-0.0723 -0.008,-0.20703 z m -450.84179,5.88476 v 0.0723 l 0.0566,4.4375 5.69922,-0.0723 -0.0566,-4.36523 v -0.0371 -0.0352 l 0.0156,-1.18945 -5.69922,-0.0723 z m 450.88672,2.84961 5.69922,0.0723 0.0352,-2.84961 -5.69922,-0.0723 z m -0.25391,8.65235 -0.002,0.0273 -0.16407,2.56641 5.68946,0.35937 0.16601,-2.63672 0.004,-0.0723 0.11719,-3.05469 -5.69727,-0.2168 z m -450.39453,-1.22266 0.0566,1.4668 0.004,0.0723 0.26757,4.22266 5.6875,-0.35937 -0.26367,-4.15235 v -0.0254 l -0.0547,-1.44141 z m 449.53711,12.48438 -0.28906,2.54297 5.66211,0.64648 0.29101,-2.54297 0.008,-0.0703 0.27735,-3.12891 -5.67774,-0.5039 z m -448.73828,-0.97071 0.13672,1.54688 0.008,0.0703 0.4707,4.12305 5.66406,-0.64844 -0.4707,-4.12109 -0.13086,-1.47461 z m 447.3164,12.17188 -0.002,0.0117 -0.41211,2.47851 5.62305,0.93164 0.42383,-2.55078 0.01,-0.0703 0.43164,-3.08594 -5.64453,-0.78906 z m -445.93945,-0.71094 0.21094,1.51172 0.01,0.0703 0.6836,4.11719 5.62304,-0.93164 -0.68164,-4.11719 -0.20117,-1.4414 z m 443.99219,11.61328 -0.002,0.008 -0.57226,2.63477 5.56836,1.21289 0.57617,-2.64258 0.0137,-0.0703 0.56446,-2.94141 -5.59961,-1.07226 z m -442.03906,-0.23828 0.26367,1.38086 0.0137,0.0703 0.91406,4.19532 5.57031,-1.2129 -0.91211,-4.18554 -0.002,-0.01 -0.25,-1.31054 z m 439.55468,11.00781 -0.01,0.0332 -0.008,0.0351 -0.74218,2.74024 5.50195,1.48828 0.76172,-2.8086 0.0176,-0.0684 0.66015,-2.71094 -5.53711,-1.35156 z m -437.02734,0.25391 0.28516,1.16602 0.0176,0.0684 1.17383,4.34376 5.50196,-1.49024 -1.15626,-4.27344 -0.008,-0.0351 -0.01,-0.0332 -0.26758,-1.09765 z m 434.01172,10.37305 -0.002,0.004 -0.96289,2.96289 5.42188,1.76172 0.98242,-3.03125 0.0215,-0.0684 0.71679,-2.4082 -5.46289,-1.625 z m -430.91602,0.74414 0.26367,0.88476 0.0215,0.0684 1.47461,4.54102 5.42187,-1.75977 -1.47461,-4.54101 -0.24414,-0.82032 z m 427.41211,9.60156 -1.22851,3.23047 5.32812,2.02539 1.25391,-3.29688 0.0234,-0.0644 0.72266,-2.05078 -5.37695,-1.89453 z m -423.7539,1.3418 0.19335,0.55273 0.0254,0.0644 1.8164,4.78321 5.32813,-2.02735 -1.79297,-4.71484 -0.19531,-0.55078 z m 419.79492,8.70117 -0.0156,0.0352 -0.0117,0.0293 -1.54492,3.52735 5.22266,2.28515 1.57226,-3.5918 0.0254,-0.0645 0.67383,-1.64844 -5.27539,-2.15625 z m -415.58594,2.04297 0.0723,0.17773 0.0273,0.0645 2.19726,5.0254 0.0293,0.0644 0.01,0.0195 3.46484,-1.61719 1.71875,-0.75195 -2.17187,-4.96094 -0.0137,-0.0332 -0.0137,-0.0312 -0.0449,-0.11133 z m 411.12891,7.81836 -0.002,0.006 -1.9375,3.89843 5.10547,2.53516 1.93945,-3.90234 0.0293,-0.0625 0.56836,-1.2168 -5.16601,-2.41016 z m -406.34571,2.75781 2.32227,4.67383 0.0312,0.0605 0.22461,0.42774 5.04101,-2.66016 -0.19336,-0.36523 -0.0117,-0.0234 -0.0195,-0.0371 -2.29101,-4.61133 z m 401.43164,6.8418 -0.0215,0.0391 -0.0117,0.0215 -2.32617,4.16016 4.97461,2.78125 2.35937,-4.2207 0.0332,-0.0605 0.40429,-0.76563 -5.04101,-2.66015 z m -396.14453,3.41406 2.30469,4.12305 0.0352,0.0605 0.49609,0.83985 4.90625,-2.90235 -0.46094,-0.77929 -2.30664,-4.12305 z m 390.78516,5.9082 -0.01,0.0137 -0.0254,0.0449 -2.79297,4.47461 4.83399,3.01757 2.83008,-4.53125 0.0351,-0.0586 0.18164,-0.30859 -4.90625,-2.9004 z m -384.98828,4.06445 2.22656,3.56641 0.0371,0.0566 0.82227,1.25 4.76171,-3.13281 -0.78515,-1.19336 -0.002,-0.004 -2.2246,-3.56054 z m 376.14844,9.37305 -0.0215,0.0293 -0.0176,0.0254 -0.22656,0.30859 4.60547,3.35938 0.26562,-0.36524 0.0391,-0.0547 2.99023,-4.31446 -4.68359,-3.24609 z m -369.85547,0.29492 2.08593,3.00782 0.0391,0.0547 1.20312,1.64844 4.60547,-3.35742 -1.16406,-1.59375 -0.0156,-0.0234 -0.0234,-0.0312 -2.04493,-2.95312 z m 363.40429,8.33008 -0.59179,0.73438 4.43945,3.57422 0.63476,-0.78711 0.041,-0.0527 2.85352,-3.7207 -4.52344,-3.46875 z m -356.63281,1.00781 1.88672,2.46094 0.041,0.0527 1.63086,2.02539 4.43946,-3.57617 -1.58789,-1.97071 -1.88672,-2.45898 z m 349.87109,7.18555 v 0.002 l -1.05078,1.18164 4.26368,3.78321 1.05078,-1.1836 0.0449,-0.0508 2.6582,-3.14453 -4.35351,-3.67969 z m -342.64062,1.80078 1.63281,1.93164 0.0449,0.0508 2.10547,2.37305 4.26367,-3.7832 -2.06054,-2.32227 -0.002,-0.004 -1.63085,-1.92579 z m 335.45703,6.10742 -0.0293,0.0312 -0.0176,0.0176 -1.46485,1.49805 4.07813,3.98242 1.51172,-1.54687 0.0469,-0.0508 2.41016,-2.5879 -4.17188,-3.88476 z m -327.7832,2.50586 1.32617,1.42579 0.0469,0.0508 2.6211,2.68359 4.07812,-3.98242 -2.57422,-2.63477 -0.0156,-0.0176 -0.0312,-0.0312 -1.2793,-1.37695 z m 320.23047,5.04883 -0.0176,0.0176 -0.0312,0.0293 -1.95899,1.82226 3.88282,4.17188 2.00781,-1.86914 0.0508,-0.0469 2.11523,-2.0664 -3.98242,-4.07813 z m -312.13672,3.16992 0.97851,0.95508 0.0488,0.0469 3.16992,2.95117 3.88477,-4.17188 -3.12305,-2.90429 -0.0312,-0.0293 -0.0176,-0.0176 -0.92968,-0.91015 z m 304.18164,4.06055 h -0.002 l -2.48632,2.10156 3.68164,4.35157 2.53711,-2.14454 0.0508,-0.0449 1.77929,-1.57812 -3.7832,-4.26367 z m -295.6875,3.74023 0.58984,0.52344 0.0508,0.0449 3.75196,3.17188 3.67968,-4.35352 -3.69922,-3.12695 h -0.002 l -0.58789,-0.52344 z m 287.49219,3.02149 -3.08985,2.36914 3.4668,4.523438 3.0918,-2.369141 0.0527,-0.04102 1.40625,-1.132812 -3.57422,-4.439445 z m -278.61524,4.345702 0.16797,0.136719 0.0527,0.04102 4.30079,3.296875 0.0547,0.04102 0.0527,0.03906 3.29297,-4.513672 0.0684,-0.08984 -0.002,-0.002 -0.0176,-0.01367 -0.0351,-0.02539 -4.19141,-3.212884 -0.0273,-0.0215 -0.0274,-0.0215 -0.11523,-0.0937 z m 270.04492,2.066407 -0.0234,0.01563 -0.0312,0.02344 -3.60547,2.498047 3.24804,4.683594 3.66016,-2.53711 0.0547,-0.03906 1.00781,-0.734375 -3.35938,-4.605469 z m -260.75,4.878906 4.17578,2.896484 0.0566,0.03711 0.51757,0.339843 3.13282,-4.759765 -0.45899,-0.302735 -4.17773,-2.894531 z m 251.86914,1.121094 -0.002,0.002 -4.23828,2.646484 3.01953,4.833985 4.24023,-2.646485 0.0566,-0.03711 0.58593,-0.384766 -3.13281,-4.761719 z m -242.28906,5.30664 3.85742,2.408203 0.0605,0.03516 0.99023,0.585937 2.90039,-4.90625 -0.93164,-0.550781 -0.0156,-0.0098 -0.043,-0.02539 -3.80078,-2.373047 z m 233.06445,0.298829 -0.0117,0.0078 -4.63672,2.591797 -0.0234,0.01172 -0.0371,0.02148 h -0.002 l 2.66015,5.041016 0.0625,-0.0332 0.0606,-0.0332 4.75586,-2.658203 0.0606,-0.03516 0.15429,-0.0918 -2.90039,-4.90625 z m -223.17382,5.636718 3.52734,1.970703 0.0605,0.0332 1.46875,0.775391 2.6582,-5.042969 -1.40625,-0.740234 -0.0391,-0.02148 -0.0215,-0.01172 -3.46679,-1.939453 z m 208.87304,1.90625 -0.008,0.0039 -0.43359,0.201172 2.41211,5.166016 0.49609,-0.232422 0.0625,-0.0293 4.61523,-2.292969 -2.53711,-5.105468 z m -198.69336,3.523438 3.19141,1.585937 0.0625,0.0293 1.93555,0.904297 2.41211,-5.166016 -1.87305,-0.873047 -0.006,-0.002 -3.18555,-1.583984 z m 188.88868,0.910156 -0.0293,0.01172 -0.0352,0.01563 -0.84765,0.345703 2.15625,5.275391 0.91211,-0.373047 0.0644,-0.02539 4.31836,-1.890625 -2.2832,-5.222656 z m -178.44727,3.996094 2.86328,1.253906 0.0645,0.02539 2.38477,0.974609 2.1543,-5.277344 -2.31836,-0.945312 -0.0352,-0.01563 -0.0293,-0.01172 -2.79882,-1.226562 z m 168.33984,-0.0098 -1.30078,0.458984 1.89453,5.375 1.30078,-0.457031 0.0645,-0.02344 4.03906,-1.53711 -2.02539,-5.328125 z m -157.66211,4.382813 2.55469,0.970703 0.0645,0.02344 2.80079,0.986328 1.89257,-5.376953 -2.79882,-0.986328 -2.48828,-0.945312 z m 147.32032,-0.88086 -0.004,0.002 -1.64258,0.488282 1.625,5.46289 1.64649,-0.490234 0.0684,-0.02148 3.78515,-1.228516 -1.75976,-5.421875 z m -136.4336,4.703125 2.27539,0.738282 0.0684,0.02148 3.16993,0.943359 1.625,-5.46289 -3.16407,-0.941407 -0.006,-0.002 -2.20703,-0.71875 z m 125.8711,-1.703125 -0.0352,0.0078 -0.0332,0.0098 -1.86914,0.457032 1.34961,5.537109 1.93945,-0.472656 0.0684,-0.01758 3.57617,-0.96875 -1.48828,-5.501954 z m -114.80274,4.96875 2.04297,0.552735 0.0684,0.01758 3.48242,0.849609 1.35157,-5.537109 -3.41407,-0.833985 -0.0332,-0.0098 -0.0352,-0.0078 -1.97265,-0.533203 z m 103.97266,-2.46875 -0.008,0.002 -2.0918,0.400391 1.07227,5.597656 2.1621,-0.414062 0.0703,-0.01367 3.41992,-0.744141 -1.21289,-5.570312 z m -92.75,5.166016 1.86523,0.40625 0.0703,0.01367 3.72265,0.71289 1.07227,-5.597656 -3.65235,-0.699219 -0.008,-0.002 -1.85937,-0.404297 z m 81.85156,-3.21875 -0.01,0.002 -2.28907,0.320312 0.78907,5.644532 2.29882,-0.322266 0.0703,-0.0098 3.33398,-0.552734 -0.93164,-5.623047 z m -70.50781,5.341797 1.76562,0.292968 0.0703,0.0098 3.87304,0.542969 0.78907,-5.646485 -3.86329,-0.539062 -0.01,-0.002 -1.69336,-0.28125 z m 59.29492,-3.917969 -2.26562,0.201172 0.5039,5.677734 2.33789,-0.207031 0.0703,-0.0078 3.33203,-0.38086 -0.64649,-5.664062 z m -47.85742,5.462891 1.75391,0.201172 0.0703,0.0078 3.91992,0.347656 0.50391,-5.677734 -3.84766,-0.341797 -1.75391,-0.199219 z m 36.62305,-4.607422 -0.0273,0.002 -2.23437,0.08398 0.21679,5.695313 2.26172,-0.08594 0.0723,-0.0039 3.42969,-0.216797 -0.35938,-5.689453 z m -25.1211,5.574218 1.84375,0.117188 0.0723,0.0039 3.84961,0.146485 0.21679,-5.695313 -3.82226,-0.144531 -0.0273,-0.002 -1.77343,-0.113282 z m 13.66406,-5.283203 h -0.0352 -0.0371 l -1.98438,-0.02539 -0.0723,5.699219 2.05664,0.02539 h 0.0723 l 3.64258,-0.04492 -0.0723,-5.699218 z"
       id="circle1484"
       inkscape:connector-curvature="0"
       transform="translate(-410.86133,584.50976)" /><path
       inkscape:connector-curvature="0"
       id="path1557"
       d="m 575.2852,-345.9707 -63.6641,112.96679 a 64.92985,64.92985 0 0 0 29.1777,6.94141 64.92985,64.92985 0 0 0 64.9297,-64.92969 64.92985,64.92985 0 0 0 -30.4433,-54.97851 z"
       style="overflow:visible;fill:#da5b59;fill-opacity:1;fill-rule:nonzero;stroke:none;stroke-width:2.7;stroke-linecap:square;stroke-linejoin:round;stroke-miterlimit:4;stroke-dasharray:none;stroke-dashoffset:0;stroke-opacity:1;paint-order:stroke fill markers"
       transform="translate(-410.86133,584.50976)" /></g></svg>
